# Blender v2.76 (sub 0) OBJ File: 'Dicetrayv2.blend'
# www.blender.org
mtllib Dicetray_v2.mtl
o Dice_Tray_Dice_Tray_auv
v -2.659139 0.465651 1.101451
v 2.659138 0.465651 -1.101452
v 1.101451 0.465651 2.659138
v -1.101451 0.465651 -2.659139
v -1.101451 0.465651 2.659138
v 1.101451 0.465651 -2.659139
v -2.659138 0.465651 -1.101452
v 2.659139 0.465651 1.101451
v 2.771638 0.390651 1.148050
v 1.148050 0.390651 2.771638
v 1.148050 0.065651 2.771638
v -1.148050 0.390651 2.771638
v -2.771639 0.390651 1.148050
v -2.771639 0.065651 1.148050
v -2.771638 0.390651 -1.148051
v -1.148050 0.390651 -2.771639
v -1.148050 0.065651 -2.771639
v 2.771638 0.390651 -1.148051
v 1.148050 0.390651 -2.771639
v 1.101451 0.465651 -2.659139
v 1.101451 0.465651 2.659138
v -1.101451 0.465651 2.659138
v -2.659139 0.465651 1.101451
v -2.659138 0.465651 -1.101452
v 2.659139 0.465651 1.101451
v 2.492942 0.465651 1.032610
v 1.032611 0.465651 2.492942
v -1.032611 0.465651 -2.492943
v 1.032610 0.465651 -2.492943
v -1.032610 0.465651 2.492942
v -2.492942 0.465651 1.032610
v 2.492942 0.165651 -1.032611
v 2.492942 0.165651 1.032610
v -2.492942 0.165651 -1.032611
v -1.032611 0.165651 -2.492943
v 1.032611 0.165651 2.492942
v -1.032610 0.165651 2.492942
v -1.148050 0.065651 2.771638
v -2.771638 0.065651 -1.148051
v 2.771638 0.065651 -1.148051
v -1.101451 0.465651 -2.659139
v 2.492942 0.465651 -1.032611
v -2.492942 0.465651 -1.032611
v -2.492942 0.165651 1.032610
v 1.032610 0.165651 -2.492943
v 0.000000 0.065651 0.000000
v 1.148050 0.065651 -2.771639
v 2.771638 0.065651 1.148050
v 0.000000 0.165651 0.000000
v 2.659138 0.465651 -1.101452
v -2.659138 3.212440 -1.101451
v -2.659139 3.212439 1.101451
v 2.659139 3.212439 1.101451
v 2.659138 3.212440 -1.101452
v 1.101451 3.212438 2.659138
v -1.101451 3.212438 2.659138
v -1.101451 3.212440 -2.659137
v 1.101451 3.212440 -2.659137
vt 0.249993 0.838761
vt 0.014916 0.838762
vt 0.009943 0.824333
vt 0.254965 0.824333
vt 0.745010 0.824332
vt 0.499988 0.824332
vt 0.499988 0.789651
vt 0.745010 0.789651
vt 0.990033 0.824332
vt 0.990033 0.789650
vt 0.495016 0.838761
vt 0.259938 0.838761
vt 0.990051 0.929314
vt 0.745028 0.929313
vt 0.745028 0.894632
vt 0.990051 0.894632
vt 0.496200 0.587931
vt 0.253372 0.587931
vt 0.253372 0.393184
vt 0.496200 0.393184
vt 0.251699 0.393070
vt 0.008993 0.393070
vt 0.008993 0.198421
vt 0.251699 0.198421
vt 0.985060 0.838761
vt 0.749983 0.838761
vt 0.251699 0.587718
vt 0.008993 0.587718
vt 0.496200 0.198437
vt 0.253372 0.198437
vt 0.253371 0.003691
vt 0.496200 0.003691
vt 0.500005 0.929313
vt 0.254982 0.929313
vt 0.254982 0.894631
vt 0.500005 0.894631
vt 0.008993 0.003773
vt 0.251699 0.003773
vt 0.009943 0.789652
vt 0.254965 0.789651
vt 0.732877 0.857078
vt 0.512493 0.857077
vt 0.505147 0.839342
vt 0.740223 0.839342
vt 0.494830 0.944179
vt 0.487484 0.961914
vt 0.267099 0.961914
vt 0.259753 0.944179
vt 0.243193 0.857430
vt 0.022807 0.857430
vt 0.015461 0.839695
vt 0.250539 0.839695
vt 0.977925 0.889045
vt 0.757540 0.889045
vt 0.757540 0.857031
vt 0.977925 0.857031
vt 0.985477 0.944393
vt 0.978130 0.962128
vt 0.757746 0.962128
vt 0.750400 0.944393
vt 0.740038 0.838761
vt 0.504961 0.838760
vt 0.985078 0.943742
vt 0.750000 0.943742
vt 0.014933 0.943741
vt 0.009960 0.929313
vt 0.250009 0.943741
vt 0.985271 0.839296
vt 0.750194 0.839296
vt 0.732393 0.962407
vt 0.512009 0.962406
vt 0.504662 0.944671
vt 0.739739 0.944671
vt 0.732393 0.994421
vt 0.512008 0.994420
vt 0.978130 0.994142
vt 0.757746 0.994142
vt 0.242743 0.994286
vt 0.022358 0.994286
vt 0.022358 0.962273
vt 0.242743 0.962272
vt 0.732877 0.889091
vt 0.512493 0.889091
vt 0.891286 0.087123
vt 0.747670 0.146610
vt 0.807158 0.002995
vt 0.891286 0.206098
vt 0.807158 0.290226
vt 0.688183 0.290226
vt 0.604055 0.206098
vt 0.604055 0.087123
vt 0.688183 0.002995
vt 0.251699 0.782367
vt 0.008993 0.782367
vt 0.009960 0.894631
vt 0.015012 0.944537
vt 0.250089 0.944537
vt 0.243193 0.889444
vt 0.022807 0.889444
vt 0.487484 0.993928
vt 0.267099 0.993928
vt 0.487684 0.857535
vt 0.267299 0.857535
vt 0.259952 0.839799
vt 0.495030 0.839799
vt 0.495032 0.943741
vt 0.259955 0.943741
vt 0.740055 0.943742
vt 0.504977 0.943741
vt 0.505703 0.437552
vt 0.747517 0.537715
vt 0.505703 0.637878
vt 0.647354 0.295901
vt 0.847680 0.295901
vt 0.989331 0.437552
vt 0.989331 0.637878
vt 0.847680 0.779529
vt 0.647355 0.779529
vt 0.487684 0.889548
vt 0.267299 0.889549
vt 0.496200 0.782677
vt 0.253372 0.782677
vn -0.307600 0.942900 0.127400
vn -0.307600 0.942900 -0.127400
vn -0.554700 0.832100 -0.000000
vn 0.000000 0.000000 1.000000
vn 0.707100 0.000000 0.707100
vn -0.127400 0.942900 0.307600
vn -0.392200 0.832100 0.392200
vn -0.707100 0.000000 -0.707100
vn -0.923900 -0.000000 0.382700
vn -0.382700 -0.000000 0.923900
vn 0.382700 0.000000 -0.923900
vn -0.382700 0.000000 -0.923900
vn 0.392200 0.832000 0.392200
vn 0.307600 0.942900 0.127400
vn 0.127400 0.942900 0.307600
vn 0.923900 0.000000 -0.382700
vn 0.382700 -0.000000 0.923900
vn 0.923900 -0.000000 0.382700
vn 0.707100 0.000000 -0.707100
vn -0.923900 0.000000 -0.382700
vn -1.000000 0.000000 -0.000000
vn -0.000000 1.000000 0.000000
vn 0.127400 0.942900 -0.307600
vn 0.307600 0.942900 -0.127400
vn -0.127400 0.942900 -0.307600
vn 0.000000 0.832100 0.554700
vn -0.392200 0.832000 -0.392200
vn 0.000000 0.000000 -1.000000
vn 0.554700 0.832000 0.000000
vn -0.707100 0.000000 0.707100
vn -0.000000 -1.000000 -0.000000
vn 1.000000 0.000000 0.000000
vn 0.392200 0.832000 -0.392200
vn 0.000000 0.832100 -0.554700
usemtl Dice_Tray_auv
s 1
f 23/1/1 24/2/2 15/3/3 13/4/3
f 10/5/4 12/6/4 38/7/4 11/8/4
f 9/9/5 10/5/5 11/8/5 48/10/5
f 22/11/6 23/12/1 13/4/7 12/6/7
f 15/13/8 16/14/8 17/15/8 39/16/8
f 2/17/9 54/18/9 58/19/10 6/20/10
f 5/21/11 56/22/11 55/23/12 3/24/12
f 9/9/13 25/25/14 21/26/15 10/5/13
f 1/27/16 52/28/16 56/22/11 5/21/11
f 4/29/17 57/30/17 51/31/18 7/32/18
f 19/33/19 18/34/19 40/35/19 47/36/19
f 3/24/12 55/23/12 53/37/20 8/38/20
f 13/4/21 15/3/21 39/39/21 14/40/21
f 27/41/22 30/42/22 22/43/6 21/44/15
f 20/45/23 29/46/22 42/47/22 50/48/24
f 31/49/22 43/50/22 24/51/2 23/52/1
f 33/53/8 36/54/8 27/55/8 26/56/8
f 24/57/2 43/58/22 28/59/22 41/60/25
f 10/5/26 21/61/15 22/62/6 12/6/26
f 24/63/2 41/64/25 16/14/27 15/13/27
f 16/14/28 19/33/28 47/36/28 17/15/28
f 25/65/14 9/66/29 18/34/29 50/67/24
f 12/6/30 13/4/30 14/40/30 38/7/30
f 6/20/10 58/19/10 57/30/17 4/29/17
f 25/68/14 26/56/22 27/55/22 21/69/15
f 28/70/22 29/71/22 20/72/23 41/73/25
f 35/74/4 45/75/4 29/71/4 28/70/4
f 34/76/5 35/77/5 28/59/5 43/58/5
f 32/78/21 33/79/21 26/80/21 42/81/21
f 36/82/28 37/83/28 30/42/28 27/41/28
f 40/84/31 46/85/31 47/86/31
f 48/87/31 46/85/31 40/84/31
f 11/88/31 46/85/31 48/87/31
f 38/89/31 46/85/31 11/88/31
f 14/90/31 46/85/31 38/89/31
f 39/91/31 46/85/31 14/90/31
f 17/92/31 46/85/31 39/91/31
f 47/86/31 46/85/31 17/92/31
f 1/27/16 7/93/18 51/94/18 52/28/16
f 18/34/32 9/66/32 48/95/32 40/35/32
f 42/81/22 26/80/22 25/96/14 50/97/24
f 44/98/32 34/99/32 43/50/32 31/49/32
f 45/100/30 32/101/30 42/47/30 29/46/30
f 30/102/22 31/103/22 23/104/1 22/105/6
f 18/34/33 19/33/33 20/106/23 50/107/24
f 16/14/34 41/108/25 20/109/23 19/33/34
f 33/110/22 49/111/22 36/112/22
f 32/113/22 49/111/22 33/110/22
f 45/114/22 49/111/22 32/113/22
f 35/115/22 49/111/22 45/114/22
f 34/116/22 49/111/22 35/115/22
f 44/117/22 49/111/22 34/116/22
f 37/118/22 49/111/22 44/117/22
f 36/112/22 49/111/22 37/118/22
f 37/119/19 44/120/19 31/103/19 30/102/19
f 2/17/9 8/121/20 53/122/20 54/18/9
